<?xml version="1.0" standalone="no"?><!DOCTYPE svg PUBLIC "-//W3C//DTD SVG 1.1//EN" "http://www.w3.org/Graphics/SVG/1.1/DTD/svg11.dtd"><svg t="1733629900060" class="icon" viewBox="0 0 1024 1024" version="1.1" xmlns="http://www.w3.org/2000/svg" p-id="28908" xmlns:xlink="http://www.w3.org/1999/xlink" width="48" height="48"><path d="M512 983.04C251.84256 983.04 40.96 772.15744 40.96 512S251.84256 40.96 512 40.96s471.04 210.88256 471.04 471.04-210.88256 471.04-471.04 471.04z" fill="#FF7029" p-id="28909"></path><path d="M512 915.7632C289.01376 915.7632 108.25728 734.98624 108.25728 512S289.01376 108.25728 512 108.25728 915.7632 289.01376 915.7632 512 734.98624 915.7632 512 915.7632z m0-26.9312c208.11776 0 376.832-168.71424 376.832-376.832S720.11776 135.168 512 135.168 135.168 303.88224 135.168 512 303.88224 888.832 512 888.832z" fill="#FFEF25" p-id="28910"></path><path d="M588.88192 446.73024h108.56448c13.4144 1.20832 20.76672 9.60512 21.95456 25.1904-1.20832 16.7936-8.54016 25.1904-21.95456 25.1904h-142.92992c40.32512 52.77696 90.99264 103.77216 152.08448 152.9856 13.4144 10.79296 13.4144 23.40864 0 37.80608-13.43488 10.79296-26.86976 12.00128-40.32512 3.60448-53.73952-36.00384-100.16768-82.20672-139.24352-138.60864v147.59936c-17.1008 25.1904-34.2016 25.1904-51.3024 0V551.1168c-34.2016 49.19296-78.17216 95.39584-131.91168 138.60864-18.3296 12.00128-34.816 12.00128-49.47968 0-9.76896-13.2096-5.48864-26.39872 12.82048-39.60832 67.1744-55.1936 113.58208-106.20928 139.24352-152.9856h-137.40032c-14.66368 0-22.60992-8.3968-23.81824-25.1904 1.2288-15.60576 9.15456-24.00256 23.81824-25.1904h106.7008c-5.12-1.96608-9.68704-6.18496-13.70112-12.67712a1382.4 1382.4 0 0 0-56.46336-81.14176c-9.1136-11.0592-7.9872-22.13888 3.42016-33.19808 12.53376-9.8304 23.94112-9.8304 34.22208 0 14.82752 19.6608 33.0752 46.71488 54.76352 81.14176 2.27328 2.4576 3.9936 3.6864 5.12 3.6864 7.9872 15.9744 6.26688 28.89728-5.12 38.72768-2.62144 1.51552-5.16096 2.6624-7.59808 3.46112h45.3632v-145.77664c17.1008-21.58592 34.2016-20.992 51.3024 1.80224v143.9744h47.2064a40.98048 40.98048 0 0 1-7.59808-3.46112c-11.40736-9.8304-13.12768-22.75328-5.12-38.72768 1.14688 0 2.84672-1.2288 5.12-3.6864 21.68832-34.42688 39.936-61.46048 54.76352-81.14176 10.28096-9.8304 21.68832-9.8304 34.24256 0 11.40736 11.0592 12.53376 22.13888 3.39968 33.19808a1416.64256 1416.64256 0 0 0-56.46336 81.14176c-3.9936 6.47168-8.56064 10.71104-13.68064 12.65664z" fill="#FFEF25" p-id="28911"></path></svg>