<?xml version="1.0" standalone="no"?><!DOCTYPE svg PUBLIC "-//W3C//DTD SVG 1.1//EN" "http://www.w3.org/Graphics/SVG/1.1/DTD/svg11.dtd"><svg class="icon" width="48px" height="48.00px" viewBox="0 0 1024 1024" version="1.1" xmlns="http://www.w3.org/2000/svg"><path fill="#707070" d="M664.576 400.04266666H335.872c-14.336 0-25.6-11.264-25.6-25.6s11.264-25.6 25.6-25.6h328.704c14.336 0 25.6 11.264 25.6 25.6s-11.776 25.6-25.6 25.6zM664.576 505.00266666H335.872c-14.336 0-25.6-11.264-25.6-25.6s11.264-25.6 25.6-25.6h328.704c14.336 0 25.6 11.264 25.6 25.6 0 13.824-11.776 25.6-25.6 25.6zM664.576 609.45066666H335.872c-14.336 0-25.6-11.264-25.6-25.6s11.264-25.6 25.6-25.6h328.704c14.336 0 25.6 11.264 25.6 25.6s-11.776 25.6-25.6 25.6z"  /><path fill="#707070" d="M858.112 890.53866666c-45.568 0-118.784-0.512-189.952-1.024-66.048-0.512-128-0.512-163.84-0.512-235.52 0-427.008-173.568-427.008-387.072C77.312 288.42666666 268.8 114.34666666 504.32 114.34666666c235.52 0 427.008 173.568 427.008 387.072 0 50.688-27.136 171.008-43.52 238.08-1.536 6.656-1.024 13.824 1.536 19.968v0.512l34.304 87.04c3.584 9.216 2.56 19.456-2.56 28.16-5.632 8.704-15.872 14.336-26.624 14.336-7.68 1.024-20.48 1.024-36.352 1.024zM504.32 165.54666666C296.96 165.54666666 128.512 316.58666666 128.512 501.93066666s168.448 335.872 375.808 335.872c35.84 0 98.304 0.512 163.84 0.512 75.776 0.512 153.088 1.024 197.12 1.024l-23.552-59.904c-6.656-16.384-8.192-34.304-4.096-51.712 26.112-109.056 41.984-193.536 41.984-226.304C880.128 316.58666666 711.68 165.54666666 504.32 165.54666666z"  /></svg>