<?xml version="1.0" standalone="no"?><!DOCTYPE svg PUBLIC "-//W3C//DTD SVG 1.1//EN" "http://www.w3.org/Graphics/SVG/1.1/DTD/svg11.dtd"><svg class="icon" width="48px" height="48.00px" viewBox="0 0 1024 1024" version="1.1" xmlns="http://www.w3.org/2000/svg"><path d="M0 0h1024v1024H0z" fill="#FFFFFF" /><path d="M160 152c-44.112 0-80 35.888-80 80v560c0 44.112 35.888 80 80 80h704c44.112 0 80-35.888 80-80V232c0-44.112-35.888-80-80-80H160m0-80h704c88.366 0 160 71.634 160 160v560c0 88.366-71.634 160-160 160H160c-88.366 0-160-71.634-160-160V232c0-88.366 71.634-160 160-160z" fill="#707070" /><path d="M632 404c-22.056 0-40 17.944-40 40v136c0 22.056 17.944 40 40 40h312V404H632m0-80h392v376H632c-66.274 0-120-53.726-120-120v-136c0-66.274 53.726-120 120-120z" fill="#707070" /><path d="M864 472a40 40 0 1 1-40 40 40 40 0 0 1 40-40z" fill="#707070" /></svg>