<?xml version="1.0" standalone="no"?><!DOCTYPE svg PUBLIC "-//W3C//DTD SVG 1.1//EN" "http://www.w3.org/Graphics/SVG/1.1/DTD/svg11.dtd"><svg class="icon" width="48px" height="48.00px" viewBox="0 0 1024 1024" version="1.1" xmlns="http://www.w3.org/2000/svg"><path fill="#707070" d="M281.6 281.6l-96.768-4.096a25.6 25.6 0 0 1-25.6-25.6L162.816 153.6a25.6 25.6 0 0 1 25.6-25.6 25.6 25.6 0 0 1 25.6 25.6l-3.072 73.472L281.6 230.4a25.6 25.6 0 0 1 0 51.2zM515.328 665.6a179.2 179.2 0 1 1 179.2-179.2 179.2 179.2 0 0 1-179.2 179.2z m0-307.2a128 128 0 1 0 128 128 128 128 0 0 0-128-126.464z"  /><path fill="#707070" d="M779.776 853.76a25.6 25.6 0 0 1-24.064-17.152 256 256 0 0 0-481.024 0A25.6 25.6 0 1 1 226.56 819.2a307.2 307.2 0 0 1 577.28 0 25.6 25.6 0 0 1-24.064 34.048z"  /><path fill="#707070" d="M515.328 984.32A456.96 456.96 0 0 1 58.88 528.128a451.584 451.584 0 0 1 48.128-204.8 30.72 30.72 0 0 1 55.04 27.648 390.656 390.656 0 0 0-41.472 176.64A394.752 394.752 0 1 0 232.192 252.672 30.72 30.72 0 0 1 188.16 209.92a456.192 456.192 0 1 1 327.168 774.4z"  /><path fill="#707070" d="M281.6 281.6l-96.768-4.096a25.6 25.6 0 0 1-25.6-25.6L162.816 153.6a25.6 25.6 0 0 1 25.6-25.6 25.6 25.6 0 0 1 25.6 25.6l-3.072 73.472L281.6 230.4a25.6 25.6 0 0 1 0 51.2zM515.328 665.6a179.2 179.2 0 1 1 179.2-179.2 179.2 179.2 0 0 1-179.2 179.2z m0-307.2a128 128 0 1 0 128 128 128 128 0 0 0-128-126.464z"  /><path fill="#707070" d="M779.776 853.76a25.6 25.6 0 0 1-24.064-17.152 256 256 0 0 0-481.024 0A25.6 25.6 0 1 1 226.56 819.2a307.2 307.2 0 0 1 577.28 0 25.6 25.6 0 0 1-24.064 34.048z"  /><path fill="#707070" d="M515.328 984.32A456.96 456.96 0 0 1 58.88 528.128a451.584 451.584 0 0 1 48.128-204.8 30.72 30.72 0 0 1 55.04 27.648 390.656 390.656 0 0 0-41.472 176.64A394.752 394.752 0 1 0 232.192 252.672 30.72 30.72 0 0 1 188.16 209.92a456.192 456.192 0 1 1 327.168 774.4z"  /></svg>